<mxfile host="65bd71144e">
    <diagram id="emvvtYQxzRHmPXdrn84x" name="Page-1">
        <mxGraphModel dx="2304" dy="2720" grid="1" gridSize="10" guides="1" tooltips="1" connect="1" arrows="1" fold="1" page="1" pageScale="1" pageWidth="850" pageHeight="1100" math="0" shadow="0">
            <root>
                <mxCell id="0"/>
                <mxCell id="1" parent="0"/>
                <mxCell id="142" style="edgeStyle=none;html=1;entryX=0;entryY=0.5;entryDx=0;entryDy=0;fontSize=36;fontStyle=1;exitX=0;exitY=0.692;exitDx=0;exitDy=0;exitPerimeter=0;" parent="1" target="113" edge="1" source="641">
                    <mxGeometry relative="1" as="geometry">
                        <Array as="points">
                            <mxPoint x="150" y="-600"/>
                            <mxPoint x="70" y="-350"/>
                            <mxPoint x="100" y="680"/>
                            <mxPoint x="127" y="1440"/>
                        </Array>
                        <mxPoint x="220" y="-600" as="sourcePoint"/>
                    </mxGeometry>
                </mxCell>
                <mxCell id="288" value="&lt;font style=&quot;font-size: 36px;&quot;&gt;Name and &lt;br&gt;Valid ID&lt;br&gt;&lt;/font&gt;" style="edgeLabel;html=1;align=center;verticalAlign=middle;resizable=0;points=[];fontSize=30;" parent="142" vertex="1" connectable="0">
                    <mxGeometry x="0.9023" y="-3" relative="1" as="geometry">
                        <mxPoint x="-25" y="-17" as="offset"/>
                    </mxGeometry>
                </mxCell>
                <mxCell id="184" style="edgeStyle=none;html=1;entryX=0.092;entryY=1.009;entryDx=0;entryDy=0;exitX=0.75;exitY=0;exitDx=0;exitDy=0;fontStyle=1;entryPerimeter=0;" parent="1" source="8" target="160" edge="1">
                    <mxGeometry relative="1" as="geometry">
                        <mxPoint x="1110" y="3200" as="sourcePoint"/>
                        <mxPoint x="2070" y="2040" as="targetPoint"/>
                        <Array as="points">
                            <mxPoint x="1430" y="2610"/>
                            <mxPoint x="1760" y="2600"/>
                            <mxPoint x="1956" y="2470"/>
                        </Array>
                    </mxGeometry>
                </mxCell>
                <mxCell id="238" value="&lt;font style=&quot;font-size: 36px;&quot;&gt;Upcoming Reserved &lt;br&gt;Rooms Information&amp;nbsp;&amp;nbsp;&lt;/font&gt;" style="edgeLabel;html=1;align=center;verticalAlign=middle;resizable=0;points=[];fontSize=24;" parent="184" vertex="1" connectable="0">
                    <mxGeometry x="-0.5975" y="1" relative="1" as="geometry">
                        <mxPoint x="194" y="-192" as="offset"/>
                    </mxGeometry>
                </mxCell>
                <mxCell id="8" value="" style="rounded=0;whiteSpace=wrap;html=1;fontSize=24;" parent="1" vertex="1">
                    <mxGeometry x="1020" y="2970" width="523.12" height="210" as="geometry"/>
                </mxCell>
                <mxCell id="9" value="" style="endArrow=none;html=1;fontSize=24;exitX=0.155;exitY=-0.002;exitDx=0;exitDy=0;exitPerimeter=0;entryX=0.152;entryY=1.011;entryDx=0;entryDy=0;entryPerimeter=0;fontStyle=1" parent="1" source="8" target="8" edge="1">
                    <mxGeometry width="50" height="50" relative="1" as="geometry">
                        <mxPoint x="-558.28" y="2980.58" as="sourcePoint"/>
                        <mxPoint x="-508.28000000000003" y="2930.58" as="targetPoint"/>
                    </mxGeometry>
                </mxCell>
                <mxCell id="638" value="D3" style="edgeLabel;html=1;align=center;verticalAlign=middle;resizable=0;points=[];fontSize=48;" vertex="1" connectable="0" parent="9">
                    <mxGeometry x="-0.2534" y="2" relative="1" as="geometry">
                        <mxPoint x="-38" y="14" as="offset"/>
                    </mxGeometry>
                </mxCell>
                <mxCell id="710" value="Transaction Logs" style="edgeLabel;html=1;align=center;verticalAlign=middle;resizable=0;points=[];fontSize=48;" vertex="1" connectable="0" parent="9">
                    <mxGeometry x="-0.3689" y="-5" relative="1" as="geometry">
                        <mxPoint x="234" y="34" as="offset"/>
                    </mxGeometry>
                </mxCell>
                <mxCell id="183" style="edgeStyle=none;html=1;entryX=0.725;entryY=1.001;entryDx=0;entryDy=0;exitX=1;exitY=0.5;exitDx=0;exitDy=0;entryPerimeter=0;fontStyle=1" parent="1" source="15" target="162" edge="1">
                    <mxGeometry relative="1" as="geometry">
                        <Array as="points">
                            <mxPoint x="2820" y="3310"/>
                            <mxPoint x="3160" y="3150"/>
                        </Array>
                    </mxGeometry>
                </mxCell>
                <mxCell id="262" value="Upcoming schedule&lt;br&gt;for Catering Services&amp;nbsp;" style="edgeLabel;html=1;align=center;verticalAlign=middle;resizable=0;points=[];fontSize=36;" parent="183" vertex="1" connectable="0">
                    <mxGeometry x="0.5887" y="-1" relative="1" as="geometry">
                        <mxPoint x="-64" y="175" as="offset"/>
                    </mxGeometry>
                </mxCell>
                <mxCell id="15" value="" style="rounded=0;whiteSpace=wrap;html=1;fontSize=24;" parent="1" vertex="1">
                    <mxGeometry x="1640" y="3230" width="670" height="230" as="geometry"/>
                </mxCell>
                <mxCell id="16" value="" style="endArrow=none;html=1;fontSize=24;exitX=0.155;exitY=-0.002;exitDx=0;exitDy=0;exitPerimeter=0;entryX=0.152;entryY=1.011;entryDx=0;entryDy=0;entryPerimeter=0;fontStyle=1" parent="1" source="15" target="15" edge="1">
                    <mxGeometry width="50" height="50" relative="1" as="geometry">
                        <mxPoint x="247.34" y="3450.8999999999996" as="sourcePoint"/>
                        <mxPoint x="297.34" y="3400.8999999999996" as="targetPoint"/>
                    </mxGeometry>
                </mxCell>
                <mxCell id="633" value="&lt;font style=&quot;font-size: 48px;&quot;&gt;D4&lt;/font&gt;" style="edgeLabel;html=1;align=center;verticalAlign=middle;resizable=0;points=[];fontSize=48;" vertex="1" connectable="0" parent="16">
                    <mxGeometry x="-0.3138" relative="1" as="geometry">
                        <mxPoint x="-52" y="30" as="offset"/>
                    </mxGeometry>
                </mxCell>
                <mxCell id="634" value="&lt;font style=&quot;font-size: 72px;&quot;&gt;Service Invoice&lt;/font&gt;" style="edgeLabel;html=1;align=center;verticalAlign=middle;resizable=0;points=[];fontSize=48;" vertex="1" connectable="0" parent="16">
                    <mxGeometry x="-0.2675" relative="1" as="geometry">
                        <mxPoint x="268" y="16" as="offset"/>
                    </mxGeometry>
                </mxCell>
                <mxCell id="144" style="edgeStyle=none;html=1;fontSize=36;fontStyle=1;entryX=0.75;entryY=0;entryDx=0;entryDy=0;exitX=0;exitY=0;exitDx=0;exitDy=109.99999999999999;exitPerimeter=0;" parent="1" source="28" target="110" edge="1">
                    <mxGeometry relative="1" as="geometry">
                        <Array as="points">
                            <mxPoint x="769" y="590"/>
                            <mxPoint x="770" y="820"/>
                        </Array>
                        <mxPoint x="830" y="880" as="targetPoint"/>
                        <mxPoint x="1022" y="679" as="sourcePoint"/>
                    </mxGeometry>
                </mxCell>
                <mxCell id="660" value="&lt;span style=&quot;font-size: 36px;&quot;&gt;Employee&amp;nbsp;&lt;/span&gt;&lt;span style=&quot;font-size: 36px;&quot;&gt;Credentials&amp;nbsp;&lt;/span&gt;" style="edgeLabel;html=1;align=center;verticalAlign=middle;resizable=0;points=[];fontSize=48;" vertex="1" connectable="0" parent="144">
                    <mxGeometry x="-0.2257" y="2" relative="1" as="geometry">
                        <mxPoint x="129" y="111" as="offset"/>
                    </mxGeometry>
                </mxCell>
                <mxCell id="28" value="&lt;font style=&quot;&quot;&gt;&lt;font style=&quot;font-size: 36px;&quot;&gt;Front Desk Counter Officer&lt;/font&gt;&lt;br&gt;&lt;/font&gt;" style="shape=cube;whiteSpace=wrap;html=1;boundedLbl=1;backgroundOutline=1;darkOpacity=0.05;darkOpacity2=0.1;" parent="1" vertex="1">
                    <mxGeometry x="820" y="480" width="510" height="240" as="geometry"/>
                </mxCell>
                <mxCell id="138" style="edgeStyle=none;html=1;fontSize=36;entryX=1.003;entryY=0.313;entryDx=0;entryDy=0;entryPerimeter=0;fontStyle=1;exitX=0;exitY=0;exitDx=0;exitDy=190;exitPerimeter=0;" parent="1" source="29" target="134" edge="1">
                    <mxGeometry relative="1" as="geometry">
                        <mxPoint x="1230" y="2225" as="targetPoint"/>
                        <Array as="points">
                            <mxPoint x="1640" y="1100"/>
                            <mxPoint x="1620" y="1140"/>
                            <mxPoint x="1640" y="2120"/>
                        </Array>
                        <mxPoint x="1840" y="1200" as="sourcePoint"/>
                    </mxGeometry>
                </mxCell>
                <mxCell id="215" value="&lt;font style=&quot;font-size: 36px;&quot;&gt;approval of catering order&lt;/font&gt;" style="edgeLabel;html=1;align=center;verticalAlign=middle;resizable=0;points=[];" parent="138" vertex="1" connectable="0">
                    <mxGeometry x="0.3558" y="-1" relative="1" as="geometry">
                        <mxPoint x="-67" y="15" as="offset"/>
                    </mxGeometry>
                </mxCell>
                <mxCell id="571" style="edgeStyle=none;html=1;fontSize=36;exitX=0;exitY=0;exitDx=195;exitDy=0;exitPerimeter=0;fontStyle=1;entryX=0.706;entryY=1.019;entryDx=0;entryDy=0;entryPerimeter=0;" parent="1" source="29" target="555" edge="1">
                    <mxGeometry relative="1" as="geometry">
                        <mxPoint x="1679" y="442" as="targetPoint"/>
                    </mxGeometry>
                </mxCell>
                <mxCell id="602" value="&lt;font style=&quot;font-size: 36px;&quot;&gt;Approval and Validation of Consumed Resources&lt;/font&gt;" style="edgeLabel;html=1;align=center;verticalAlign=middle;resizable=0;points=[];fontSize=24;" parent="571" vertex="1" connectable="0">
                    <mxGeometry x="0.6663" y="-1" relative="1" as="geometry">
                        <mxPoint x="306" as="offset"/>
                    </mxGeometry>
                </mxCell>
                <mxCell id="29" value="&lt;font style=&quot;&quot;&gt;&lt;font style=&quot;font-size: 48px;&quot;&gt;Business Owner&lt;/font&gt;&lt;br&gt;&lt;/font&gt;" style="shape=cube;whiteSpace=wrap;html=1;boundedLbl=1;backgroundOutline=1;darkOpacity=0.05;darkOpacity2=0.1;" parent="1" vertex="1">
                    <mxGeometry x="1730" y="870" width="410" height="240" as="geometry"/>
                </mxCell>
                <mxCell id="139" style="edgeStyle=none;html=1;entryX=1;entryY=0.75;entryDx=0;entryDy=0;fontSize=36;exitX=0.356;exitY=1.004;exitDx=0;exitDy=0;exitPerimeter=0;fontStyle=1;" parent="1" source="31" target="134" edge="1">
                    <mxGeometry relative="1" as="geometry">
                        <Array as="points">
                            <mxPoint x="1820" y="2210"/>
                        </Array>
                    </mxGeometry>
                </mxCell>
                <mxCell id="289" value="&lt;span style=&quot;font-size: 36px;&quot;&gt;Credentials for Handling&lt;br&gt;Catering Service&lt;br&gt;&lt;/span&gt;" style="edgeLabel;html=1;align=center;verticalAlign=middle;resizable=0;points=[];fontSize=24;" parent="139" vertex="1" connectable="0">
                    <mxGeometry x="0.7005" y="3" relative="1" as="geometry">
                        <mxPoint x="119" y="-12" as="offset"/>
                    </mxGeometry>
                </mxCell>
                <mxCell id="181" style="edgeStyle=none;html=1;entryX=-0.009;entryY=0.631;entryDx=0;entryDy=0;exitX=1.002;exitY=0.759;exitDx=0;exitDy=0;exitPerimeter=0;fontStyle=1;entryPerimeter=0;" parent="1" source="31" target="177" edge="1">
                    <mxGeometry relative="1" as="geometry"/>
                </mxCell>
                <mxCell id="280" value="&lt;font style=&quot;&quot;&gt;&lt;font style=&quot;font-size: 36px;&quot;&gt;Business Status &amp;amp;&amp;nbsp;&lt;br&gt;Operations&amp;nbsp;report&lt;/font&gt;&lt;br&gt;&lt;/font&gt;" style="edgeLabel;html=1;align=center;verticalAlign=middle;resizable=0;points=[];fontSize=24;" parent="181" vertex="1" connectable="0">
                    <mxGeometry x="-0.5411" y="-1" relative="1" as="geometry">
                        <mxPoint x="107" y="69" as="offset"/>
                    </mxGeometry>
                </mxCell>
                <mxCell id="453" style="edgeStyle=none;html=1;entryX=0.382;entryY=-0.001;entryDx=0;entryDy=0;fontSize=24;exitX=0.879;exitY=1.022;exitDx=0;exitDy=0;exitPerimeter=0;fontStyle=1;entryPerimeter=0;" parent="1" source="31" target="160" edge="1">
                    <mxGeometry relative="1" as="geometry">
                        <Array as="points">
                            <mxPoint x="2070" y="1590"/>
                            <mxPoint x="2200" y="1750"/>
                        </Array>
                    </mxGeometry>
                </mxCell>
                <mxCell id="456" value="&lt;font style=&quot;font-size: 36px;&quot;&gt;Staff&lt;br&gt;&amp;nbsp;Identification&lt;br&gt;Details&lt;/font&gt;" style="edgeLabel;html=1;align=center;verticalAlign=middle;resizable=0;points=[];fontSize=24;" parent="453" vertex="1" connectable="0">
                    <mxGeometry x="-0.1463" y="-7" relative="1" as="geometry">
                        <mxPoint x="51" y="34" as="offset"/>
                    </mxGeometry>
                </mxCell>
                <mxCell id="515" style="edgeStyle=none;html=1;entryX=0.369;entryY=0.996;entryDx=0;entryDy=0;fontSize=24;fillColor=#FFFFFF;entryPerimeter=0;fontStyle=1" parent="1" source="31" target="507" edge="1">
                    <mxGeometry relative="1" as="geometry">
                        <Array as="points">
                            <mxPoint x="1970" y="1210"/>
                            <mxPoint x="2060" y="1160"/>
                            <mxPoint x="2430" y="1150"/>
                            <mxPoint x="2550" y="1030"/>
                        </Array>
                    </mxGeometry>
                </mxCell>
                <mxCell id="521" value="&lt;font style=&quot;font-size: 36px;&quot;&gt;Orders and Instructions&lt;/font&gt;" style="edgeLabel;html=1;align=center;verticalAlign=middle;resizable=0;points=[];fontSize=24;" parent="515" vertex="1" connectable="0">
                    <mxGeometry x="-0.521" y="7" relative="1" as="geometry">
                        <mxPoint x="185" y="28" as="offset"/>
                    </mxGeometry>
                </mxCell>
                <mxCell id="31" value="&lt;font style=&quot;&quot;&gt;&lt;font style=&quot;font-size: 36px;&quot;&gt;Management Officer&lt;/font&gt;&lt;br&gt;&lt;/font&gt;" style="shape=cube;whiteSpace=wrap;html=1;boundedLbl=1;backgroundOutline=1;darkOpacity=0.05;darkOpacity2=0.1;" parent="1" vertex="1">
                    <mxGeometry x="1660" y="1300" width="430" height="209.82" as="geometry"/>
                </mxCell>
                <mxCell id="132" style="edgeStyle=none;html=1;fontSize=36;entryX=-0.004;entryY=0.232;entryDx=0;entryDy=0;entryPerimeter=0;fontStyle=1;exitX=1;exitY=0.25;exitDx=0;exitDy=0;" parent="1" target="29" edge="1" source="110">
                    <mxGeometry relative="1" as="geometry">
                        <Array as="points"/>
                        <mxPoint x="1830" y="975" as="targetPoint"/>
                        <mxPoint x="1120" y="1080" as="sourcePoint"/>
                    </mxGeometry>
                </mxCell>
                <mxCell id="221" value="&lt;font style=&quot;font-size: 36px;&quot;&gt;Catering Service Request Rundown&lt;/font&gt;" style="edgeLabel;html=1;align=center;verticalAlign=middle;resizable=0;points=[];fontSize=24;" parent="132" vertex="1" connectable="0">
                    <mxGeometry x="0.4425" y="2" relative="1" as="geometry">
                        <mxPoint x="-213" y="7" as="offset"/>
                    </mxGeometry>
                </mxCell>
                <mxCell id="133" style="edgeStyle=none;html=1;entryX=0.245;entryY=0.002;entryDx=0;entryDy=0;entryPerimeter=0;fontSize=36;exitX=1.002;exitY=0.819;exitDx=0;exitDy=0;fontStyle=1;exitPerimeter=0;" parent="1" source="110" target="31" edge="1">
                    <mxGeometry relative="1" as="geometry">
                        <Array as="points">
                            <mxPoint x="1765" y="1200"/>
                        </Array>
                    </mxGeometry>
                </mxCell>
                <mxCell id="278" value="&lt;font style=&quot;font-size: 36px;&quot;&gt;Catering Service&lt;br style=&quot;&quot;&gt;Request Rundown&lt;/font&gt;" style="edgeLabel;html=1;align=center;verticalAlign=middle;resizable=0;points=[];fontSize=24;" parent="133" vertex="1" connectable="0">
                    <mxGeometry x="0.617" y="5" relative="1" as="geometry">
                        <mxPoint x="-450" y="46" as="offset"/>
                    </mxGeometry>
                </mxCell>
                <mxCell id="270" style="edgeStyle=none;html=1;fontSize=36;fontStyle=1;exitX=1.003;exitY=0.6;exitDx=0;exitDy=0;entryX=0;entryY=0.667;entryDx=0;entryDy=0;entryPerimeter=0;exitPerimeter=0;" parent="1" source="110" target="29" edge="1">
                    <mxGeometry relative="1" as="geometry">
                        <Array as="points"/>
                    </mxGeometry>
                </mxCell>
                <mxCell id="271" value="&lt;font style=&quot;font-size: 36px;&quot;&gt;Upcoming Catering Service Order&lt;/font&gt;" style="edgeLabel;html=1;align=center;verticalAlign=middle;resizable=0;points=[];fontSize=36;" parent="270" vertex="1" connectable="0">
                    <mxGeometry x="0.2633" y="2" relative="1" as="geometry">
                        <mxPoint x="-89" y="-14" as="offset"/>
                    </mxGeometry>
                </mxCell>
                <mxCell id="661" style="edgeStyle=none;html=1;fontSize=48;exitX=0.372;exitY=1.005;exitDx=0;exitDy=0;exitPerimeter=0;" edge="1" parent="1" source="110" target="113">
                    <mxGeometry relative="1" as="geometry"/>
                </mxCell>
                <mxCell id="662" value="&lt;span style=&quot;font-size: 36px;&quot;&gt;Catering Service Request&amp;nbsp;&lt;/span&gt;&lt;span style=&quot;font-size: 36px;&quot;&gt;Initial Information&lt;/span&gt;" style="edgeLabel;html=1;align=center;verticalAlign=middle;resizable=0;points=[];fontSize=48;" vertex="1" connectable="0" parent="661">
                    <mxGeometry x="-0.4317" y="2" relative="1" as="geometry">
                        <mxPoint x="98" y="34" as="offset"/>
                    </mxGeometry>
                </mxCell>
                <mxCell id="110" value="&lt;font style=&quot;font-size: 36px;&quot;&gt;Pass Catering Service Handling&amp;nbsp;&lt;br&gt;and Information to high&lt;/font&gt;" style="rounded=1;whiteSpace=wrap;html=1;fontSize=24;" parent="1" vertex="1">
                    <mxGeometry x="290" y="960.18" width="651.56" height="279.82" as="geometry"/>
                </mxCell>
                <mxCell id="111" value="" style="endArrow=none;html=1;fontSize=24;exitX=0;exitY=0.25;exitDx=0;exitDy=0;entryX=1;entryY=0.25;entryDx=0;entryDy=0;fontStyle=1" parent="1" source="110" target="110" edge="1">
                    <mxGeometry width="50" height="50" relative="1" as="geometry">
                        <mxPoint x="490" y="1090" as="sourcePoint"/>
                        <mxPoint x="540" y="1040" as="targetPoint"/>
                    </mxGeometry>
                </mxCell>
                <mxCell id="644" value="5.1" style="edgeLabel;html=1;align=center;verticalAlign=middle;resizable=0;points=[];fontSize=48;" vertex="1" connectable="0" parent="111">
                    <mxGeometry x="-0.6235" y="-2" relative="1" as="geometry">
                        <mxPoint x="-30" y="-35" as="offset"/>
                    </mxGeometry>
                </mxCell>
                <mxCell id="701" style="edgeStyle=none;html=1;entryX=0.782;entryY=-0.006;entryDx=0;entryDy=0;fontSize=48;entryPerimeter=0;" edge="1" parent="1" source="113" target="115">
                    <mxGeometry relative="1" as="geometry">
                        <Array as="points">
                            <mxPoint x="1160" y="1525"/>
                        </Array>
                    </mxGeometry>
                </mxCell>
                <mxCell id="702" value="&lt;span style=&quot;font-size: 36px;&quot;&gt;Customer's requests for&amp;nbsp;&lt;/span&gt;&lt;span style=&quot;font-size: 36px;&quot;&gt;Catering Service&lt;/span&gt;" style="edgeLabel;html=1;align=center;verticalAlign=middle;resizable=0;points=[];fontSize=48;" vertex="1" connectable="0" parent="701">
                    <mxGeometry x="-0.0157" y="-1" relative="1" as="geometry">
                        <mxPoint x="117" y="64" as="offset"/>
                    </mxGeometry>
                </mxCell>
                <mxCell id="113" value="&lt;font style=&quot;font-size: 36px;&quot;&gt;Retrieve Customer Information&lt;br&gt;&lt;/font&gt;" style="rounded=1;whiteSpace=wrap;html=1;fontSize=24;" parent="1" vertex="1">
                    <mxGeometry x="300" y="1400" width="560" height="250" as="geometry"/>
                </mxCell>
                <mxCell id="114" value="" style="endArrow=none;html=1;fontSize=24;exitX=0;exitY=0.302;exitDx=0;exitDy=0;fontStyle=1;exitPerimeter=0;entryX=1.003;entryY=0.295;entryDx=0;entryDy=0;entryPerimeter=0;" parent="1" source="113" target="113" edge="1">
                    <mxGeometry width="50" height="50" relative="1" as="geometry">
                        <mxPoint x="490" y="1330" as="sourcePoint"/>
                        <mxPoint x="1150" y="1520" as="targetPoint"/>
                    </mxGeometry>
                </mxCell>
                <mxCell id="642" value="6.1" style="edgeLabel;html=1;align=center;verticalAlign=middle;resizable=0;points=[];fontSize=48;" vertex="1" connectable="0" parent="114">
                    <mxGeometry x="-0.6815" y="2" relative="1" as="geometry">
                        <mxPoint x="-13" y="-33" as="offset"/>
                    </mxGeometry>
                </mxCell>
                <mxCell id="656" style="edgeStyle=none;html=1;entryX=0.5;entryY=0;entryDx=0;entryDy=0;fontSize=48;exitX=0.547;exitY=1.016;exitDx=0;exitDy=0;exitPerimeter=0;" edge="1" parent="1" source="115" target="134">
                    <mxGeometry relative="1" as="geometry"/>
                </mxCell>
                <mxCell id="657" value="&lt;span style=&quot;font-size: 36px;&quot;&gt;Customer Approval of&amp;nbsp;Catering Details&lt;/span&gt;" style="edgeLabel;html=1;align=center;verticalAlign=middle;resizable=0;points=[];fontSize=48;" vertex="1" connectable="0" parent="656">
                    <mxGeometry x="-0.1388" relative="1" as="geometry">
                        <mxPoint x="86" as="offset"/>
                    </mxGeometry>
                </mxCell>
                <mxCell id="115" value="&lt;font style=&quot;font-size: 36px;&quot;&gt;Discuss and Negotiate preparation of&amp;nbsp;Requests and Preference &lt;br&gt;&lt;/font&gt;" style="rounded=1;whiteSpace=wrap;html=1;fontSize=24;" parent="1" vertex="1">
                    <mxGeometry x="340" y="1720" width="1043.12" height="240" as="geometry"/>
                </mxCell>
                <mxCell id="116" value="" style="endArrow=none;html=1;fontSize=24;exitX=0.001;exitY=0.309;exitDx=0;exitDy=0;fontStyle=1;exitPerimeter=0;entryX=1;entryY=0.285;entryDx=0;entryDy=0;entryPerimeter=0;" parent="1" source="115" target="115" edge="1">
                    <mxGeometry width="50" height="50" relative="1" as="geometry">
                        <mxPoint x="490" y="1570" as="sourcePoint"/>
                        <mxPoint x="1240" y="1880" as="targetPoint"/>
                        <Array as="points">
                            <mxPoint x="960" y="1800"/>
                        </Array>
                    </mxGeometry>
                </mxCell>
                <mxCell id="643" value="7.1" style="edgeLabel;html=1;align=center;verticalAlign=middle;resizable=0;points=[];fontSize=48;" vertex="1" connectable="0" parent="116">
                    <mxGeometry x="-0.7857" y="1" relative="1" as="geometry">
                        <mxPoint x="-33" y="-33" as="offset"/>
                    </mxGeometry>
                </mxCell>
                <mxCell id="122" style="edgeStyle=none;html=1;entryX=0.25;entryY=0;entryDx=0;entryDy=0;fontSize=36;exitX=0.865;exitY=1.005;exitDx=0;exitDy=0;exitPerimeter=0;fontStyle=1" parent="1" source="117" target="8" edge="1">
                    <mxGeometry relative="1" as="geometry">
                        <Array as="points">
                            <mxPoint x="1151" y="2830"/>
                        </Array>
                    </mxGeometry>
                </mxCell>
                <mxCell id="240" value="&lt;font style=&quot;font-size: 36px;&quot;&gt;Catering Service &lt;br&gt;and Preparations &lt;br&gt;Details&amp;nbsp;&lt;/font&gt;" style="edgeLabel;html=1;align=center;verticalAlign=middle;resizable=0;points=[];fontSize=24;" parent="122" vertex="1" connectable="0">
                    <mxGeometry x="0.4197" y="1" relative="1" as="geometry">
                        <mxPoint x="-12" y="-51" as="offset"/>
                    </mxGeometry>
                </mxCell>
                <mxCell id="123" style="edgeStyle=none;html=1;entryX=0;entryY=0.5;entryDx=0;entryDy=0;fontSize=36;fontStyle=1;exitX=0.557;exitY=0.997;exitDx=0;exitDy=0;exitPerimeter=0;" parent="1" source="117" target="15" edge="1">
                    <mxGeometry relative="1" as="geometry">
                        <Array as="points">
                            <mxPoint x="957" y="2800"/>
                            <mxPoint x="957" y="3310"/>
                        </Array>
                        <mxPoint x="960" y="2740" as="sourcePoint"/>
                    </mxGeometry>
                </mxCell>
                <mxCell id="237" value="&lt;font style=&quot;font-size: 36px;&quot;&gt;Catering Service Details&amp;nbsp; &amp;nbsp;&lt;/font&gt;" style="edgeLabel;html=1;align=center;verticalAlign=middle;resizable=0;points=[];fontSize=24;" parent="123" vertex="1" connectable="0">
                    <mxGeometry x="0.6903" y="3" relative="1" as="geometry">
                        <mxPoint x="-242" y="-22" as="offset"/>
                    </mxGeometry>
                </mxCell>
                <mxCell id="650" style="edgeStyle=none;html=1;exitX=0;exitY=0.75;exitDx=0;exitDy=0;entryX=0.5;entryY=0;entryDx=0;entryDy=0;fontSize=48;" edge="1" parent="1" source="117" target="647">
                    <mxGeometry relative="1" as="geometry">
                        <Array as="points">
                            <mxPoint x="480" y="2670"/>
                        </Array>
                    </mxGeometry>
                </mxCell>
                <mxCell id="651" value="&lt;span style=&quot;font-size: 36px;&quot;&gt;Total Cost of catering service&amp;nbsp;&lt;/span&gt;" style="edgeLabel;html=1;align=center;verticalAlign=middle;resizable=0;points=[];fontSize=48;" vertex="1" connectable="0" parent="650">
                    <mxGeometry x="0.0538" relative="1" as="geometry">
                        <mxPoint x="-100" y="62" as="offset"/>
                    </mxGeometry>
                </mxCell>
                <mxCell id="654" style="edgeStyle=none;html=1;exitX=0;exitY=0.5;exitDx=0;exitDy=0;entryX=-0.001;entryY=0.227;entryDx=0;entryDy=0;entryPerimeter=0;fontSize=48;" edge="1" parent="1" source="117" target="641">
                    <mxGeometry relative="1" as="geometry">
                        <Array as="points">
                            <mxPoint x="-10" y="2550"/>
                            <mxPoint x="-20" y="-480"/>
                            <mxPoint x="90" y="-720"/>
                        </Array>
                    </mxGeometry>
                </mxCell>
                <mxCell id="655" value="&lt;span style=&quot;font-size: 36px;&quot;&gt;Copy&amp;nbsp;&lt;/span&gt;&lt;span style=&quot;font-size: 36px;&quot;&gt;Service Invoice&lt;/span&gt;" style="edgeLabel;html=1;align=center;verticalAlign=middle;resizable=0;points=[];fontSize=48;" vertex="1" connectable="0" parent="654">
                    <mxGeometry x="0.1487" relative="1" as="geometry">
                        <mxPoint x="246" y="1728" as="offset"/>
                    </mxGeometry>
                </mxCell>
                <mxCell id="117" value="&lt;font style=&quot;font-size: 36px;&quot;&gt;Filling up the forms for service invoice&amp;nbsp;&lt;/font&gt;" style="rounded=1;whiteSpace=wrap;html=1;fontSize=24;" parent="1" vertex="1">
                    <mxGeometry x="596.88" y="2490" width="643.12" height="240" as="geometry"/>
                </mxCell>
                <mxCell id="118" value="" style="endArrow=none;html=1;fontSize=24;exitX=0.002;exitY=0.323;exitDx=0;exitDy=0;entryX=1;entryY=0.321;entryDx=0;entryDy=0;fontStyle=1;exitPerimeter=0;entryPerimeter=0;" parent="1" source="117" target="117" edge="1">
                    <mxGeometry width="50" height="50" relative="1" as="geometry">
                        <mxPoint x="490" y="1800" as="sourcePoint"/>
                        <mxPoint x="540" y="1750" as="targetPoint"/>
                    </mxGeometry>
                </mxCell>
                <mxCell id="646" value="9.1" style="edgeLabel;html=1;align=center;verticalAlign=middle;resizable=0;points=[];fontSize=48;" vertex="1" connectable="0" parent="118">
                    <mxGeometry x="-0.6774" y="3" relative="1" as="geometry">
                        <mxPoint x="-18" y="-38" as="offset"/>
                    </mxGeometry>
                </mxCell>
                <mxCell id="150" style="edgeStyle=none;html=1;fontSize=36;exitX=0;exitY=0.5;exitDx=0;exitDy=0;entryX=0;entryY=0;entryDx=0;entryDy=120;entryPerimeter=0;fontStyle=1" parent="1" source="134" edge="1" target="641">
                    <mxGeometry relative="1" as="geometry">
                        <mxPoint x="332.4027900000001" y="-272.0799999999999" as="targetPoint"/>
                        <Array as="points">
                            <mxPoint x="70" y="2160"/>
                            <mxPoint x="30" y="-430"/>
                            <mxPoint x="120" y="-660"/>
                        </Array>
                    </mxGeometry>
                </mxCell>
                <mxCell id="275" value="&lt;font style=&quot;font-size: 36px;&quot;&gt;Catering Service&amp;nbsp;Order Finalization&amp;nbsp;&lt;/font&gt;" style="edgeLabel;html=1;align=center;verticalAlign=middle;resizable=0;points=[];fontSize=30;" parent="150" vertex="1" connectable="0">
                    <mxGeometry x="-0.928" y="-1" relative="1" as="geometry">
                        <mxPoint x="-175" y="37" as="offset"/>
                    </mxGeometry>
                </mxCell>
                <mxCell id="652" style="edgeStyle=none;html=1;entryX=0.5;entryY=0;entryDx=0;entryDy=0;fontSize=48;" edge="1" parent="1" source="134" target="117">
                    <mxGeometry relative="1" as="geometry"/>
                </mxCell>
                <mxCell id="653" value="&lt;span style=&quot;font-size: 36px;&quot;&gt;Catering Service Order Details&lt;/span&gt;" style="edgeLabel;html=1;align=center;verticalAlign=middle;resizable=0;points=[];fontSize=48;" vertex="1" connectable="0" parent="652">
                    <mxGeometry x="-0.3215" y="1" relative="1" as="geometry">
                        <mxPoint x="179" y="26" as="offset"/>
                    </mxGeometry>
                </mxCell>
                <mxCell id="134" value="&lt;font style=&quot;font-size: 36px;&quot;&gt;Transaction Details finalization&lt;/font&gt;" style="rounded=1;whiteSpace=wrap;html=1;fontSize=24;" parent="1" vertex="1">
                    <mxGeometry x="620" y="2110" width="580" height="210" as="geometry"/>
                </mxCell>
                <mxCell id="135" value="" style="endArrow=none;html=1;fontSize=24;exitX=0.002;exitY=0.304;exitDx=0;exitDy=0;entryX=1.001;entryY=0.301;entryDx=0;entryDy=0;fontStyle=1;exitPerimeter=0;entryPerimeter=0;" parent="1" source="134" target="134" edge="1">
                    <mxGeometry width="50" height="50" relative="1" as="geometry">
                        <mxPoint x="1020" y="1810" as="sourcePoint"/>
                        <mxPoint x="1070" y="1760" as="targetPoint"/>
                    </mxGeometry>
                </mxCell>
                <mxCell id="645" value="8.1" style="edgeLabel;html=1;align=center;verticalAlign=middle;resizable=0;points=[];fontSize=48;" vertex="1" connectable="0" parent="135">
                    <mxGeometry x="-0.7672" y="2" relative="1" as="geometry">
                        <mxPoint x="-8" y="-38" as="offset"/>
                    </mxGeometry>
                </mxCell>
                <mxCell id="310" style="edgeStyle=none;html=1;entryX=1;entryY=0.715;entryDx=0;entryDy=0;entryPerimeter=0;fontSize=24;exitX=1;exitY=0.5;exitDx=0;exitDy=0;fontStyle=1;" parent="1" source="162" target="172" edge="1">
                    <mxGeometry relative="1" as="geometry">
                        <mxPoint x="3100.62" y="1780" as="sourcePoint"/>
                        <Array as="points">
                            <mxPoint x="3410" y="2035"/>
                            <mxPoint x="3410" y="1620"/>
                        </Array>
                    </mxGeometry>
                </mxCell>
                <mxCell id="311" value="&lt;font style=&quot;font-size: 36px;&quot;&gt;Schedule &lt;br&gt;information&lt;/font&gt;" style="edgeLabel;html=1;align=center;verticalAlign=middle;resizable=0;points=[];fontSize=24;" parent="310" vertex="1" connectable="0">
                    <mxGeometry x="-0.0465" y="-1" relative="1" as="geometry">
                        <mxPoint x="-61" y="-25" as="offset"/>
                    </mxGeometry>
                </mxCell>
                <mxCell id="167" style="edgeStyle=none;html=1;entryX=0.194;entryY=0.011;entryDx=0;entryDy=0;entryPerimeter=0;exitX=0.689;exitY=1;exitDx=0;exitDy=0;exitPerimeter=0;fontStyle=1" parent="1" source="160" target="164" edge="1">
                    <mxGeometry relative="1" as="geometry">
                        <mxPoint x="2270" y="2280" as="targetPoint"/>
                    </mxGeometry>
                </mxCell>
                <mxCell id="486" value="&lt;font style=&quot;font-size: 36px;&quot;&gt;Relevant Updates and Status&lt;br&gt;report for Room Lodging&lt;/font&gt;" style="edgeLabel;html=1;align=center;verticalAlign=middle;resizable=0;points=[];fontSize=24;" parent="167" vertex="1" connectable="0">
                    <mxGeometry x="-0.4207" y="-7" relative="1" as="geometry">
                        <mxPoint x="-99" y="87" as="offset"/>
                    </mxGeometry>
                </mxCell>
                <mxCell id="160" value="&lt;font style=&quot;font-size: 48px;&quot;&gt;Check schedule for &lt;br&gt;room status changes&amp;nbsp;&lt;/font&gt;" style="rounded=1;whiteSpace=wrap;html=1;fontSize=24;" parent="1" vertex="1">
                    <mxGeometry x="1880" y="1930" width="830" height="220" as="geometry"/>
                </mxCell>
                <mxCell id="161" value="" style="endArrow=none;html=1;fontSize=24;exitX=0;exitY=0.25;exitDx=0;exitDy=0;entryX=1;entryY=0.25;entryDx=0;entryDy=0;fontStyle=1" parent="1" source="160" target="160" edge="1">
                    <mxGeometry width="50" height="50" relative="1" as="geometry">
                        <mxPoint x="1919.3600000000001" y="2360" as="sourcePoint"/>
                        <mxPoint x="1969.3600000000001" y="2310" as="targetPoint"/>
                    </mxGeometry>
                </mxCell>
                <mxCell id="549" value="&lt;font style=&quot;font-size: 36px;&quot;&gt;17.0&lt;/font&gt;" style="edgeLabel;html=1;align=center;verticalAlign=middle;resizable=0;points=[];fontSize=36;" parent="161" vertex="1" connectable="0">
                    <mxGeometry x="-0.7141" y="4" relative="1" as="geometry">
                        <mxPoint x="-9" y="-21" as="offset"/>
                    </mxGeometry>
                </mxCell>
                <mxCell id="169" style="edgeStyle=none;html=1;entryX=0.837;entryY=0.007;entryDx=0;entryDy=0;entryPerimeter=0;fontStyle=1;exitX=0.25;exitY=1;exitDx=0;exitDy=0;" parent="1" source="162" target="164" edge="1">
                    <mxGeometry relative="1" as="geometry">
                        <mxPoint x="2880.3100000000004" y="2250" as="targetPoint"/>
                        <Array as="points">
                            <mxPoint x="2880" y="2320"/>
                            <mxPoint x="2750" y="2400"/>
                        </Array>
                    </mxGeometry>
                </mxCell>
                <mxCell id="265" value="&lt;font style=&quot;font-size: 36px;&quot;&gt;Updates and Status report &lt;br&gt;of Catering Service Preparation&amp;nbsp;&lt;/font&gt;" style="edgeLabel;html=1;align=center;verticalAlign=middle;resizable=0;points=[];fontSize=24;" parent="169" vertex="1" connectable="0">
                    <mxGeometry x="-0.3461" y="1" relative="1" as="geometry">
                        <mxPoint x="-2" y="11" as="offset"/>
                    </mxGeometry>
                </mxCell>
                <mxCell id="162" value="&lt;font style=&quot;font-size: 36px;&quot;&gt;Check schedule for upcoming&lt;br&gt;catering service event&lt;/font&gt;" style="rounded=1;whiteSpace=wrap;html=1;fontSize=24;" parent="1" vertex="1">
                    <mxGeometry x="2740" y="1910" width="610" height="250" as="geometry"/>
                </mxCell>
                <mxCell id="163" value="" style="endArrow=none;html=1;fontSize=24;exitX=-0.003;exitY=0.323;exitDx=0;exitDy=0;exitPerimeter=0;entryX=0.999;entryY=0.314;entryDx=0;entryDy=0;entryPerimeter=0;fontStyle=1" parent="1" source="162" target="162" edge="1">
                    <mxGeometry width="50" height="50" relative="1" as="geometry">
                        <mxPoint x="2650" y="1950" as="sourcePoint"/>
                        <mxPoint x="3110" y="1940" as="targetPoint"/>
                    </mxGeometry>
                </mxCell>
                <mxCell id="551" value="19.0" style="edgeLabel;html=1;align=center;verticalAlign=middle;resizable=0;points=[];fontSize=36;" parent="163" vertex="1" connectable="0">
                    <mxGeometry x="-0.69" y="-1" relative="1" as="geometry">
                        <mxPoint x="-21" y="-29" as="offset"/>
                    </mxGeometry>
                </mxCell>
                <mxCell id="536" style="edgeStyle=none;html=1;fontSize=24;fillColor=#FFFFFF;entryX=0.216;entryY=0.013;entryDx=0;entryDy=0;entryPerimeter=0;fontStyle=1;exitX=0.25;exitY=1;exitDx=0;exitDy=0;" parent="1" source="164" target="537" edge="1">
                    <mxGeometry relative="1" as="geometry">
                        <mxPoint x="2130" y="2724.6297200520835" as="targetPoint"/>
                        <mxPoint x="2413" y="2790" as="sourcePoint"/>
                    </mxGeometry>
                </mxCell>
                <mxCell id="544" value="Management Notification &lt;br&gt;and Inquiry" style="edgeLabel;html=1;align=center;verticalAlign=middle;resizable=0;points=[];fontSize=36;" parent="536" vertex="1" connectable="0">
                    <mxGeometry x="-0.3114" y="2" relative="1" as="geometry">
                        <mxPoint x="-135" y="24" as="offset"/>
                    </mxGeometry>
                </mxCell>
                <mxCell id="164" value="&lt;font style=&quot;font-size: 36px;&quot;&gt;Contact customers &lt;br&gt;for their Cooperation&amp;nbsp;&lt;/font&gt;" style="rounded=1;whiteSpace=wrap;html=1;fontSize=24;" parent="1" vertex="1">
                    <mxGeometry x="2340" y="2540" width="480" height="230" as="geometry"/>
                </mxCell>
                <mxCell id="165" value="" style="endArrow=none;html=1;fontSize=24;entryX=0.999;entryY=0.294;entryDx=0;entryDy=0;entryPerimeter=0;fontStyle=1" parent="1" target="164" edge="1">
                    <mxGeometry width="50" height="50" relative="1" as="geometry">
                        <mxPoint x="2340" y="2610" as="sourcePoint"/>
                        <mxPoint x="2820" y="2600" as="targetPoint"/>
                    </mxGeometry>
                </mxCell>
                <mxCell id="550" value="18.0" style="edgeLabel;html=1;align=center;verticalAlign=middle;resizable=0;points=[];fontSize=36;" parent="165" vertex="1" connectable="0">
                    <mxGeometry x="-0.7224" relative="1" as="geometry">
                        <mxPoint x="-4" y="-31" as="offset"/>
                    </mxGeometry>
                </mxCell>
                <mxCell id="173" style="edgeStyle=none;html=1;entryX=0.684;entryY=0.015;entryDx=0;entryDy=0;exitX=-0.005;exitY=0.71;exitDx=0;exitDy=0;exitPerimeter=0;entryPerimeter=0;fontStyle=1" parent="1" source="172" target="160" edge="1">
                    <mxGeometry relative="1" as="geometry">
                        <Array as="points">
                            <mxPoint x="2450" y="1770"/>
                        </Array>
                        <mxPoint x="2645" y="1720" as="targetPoint"/>
                    </mxGeometry>
                </mxCell>
                <mxCell id="263" value="&lt;font style=&quot;font-size: 36px;&quot;&gt;Staff Identification Details&lt;/font&gt;" style="edgeLabel;html=1;align=center;verticalAlign=middle;resizable=0;points=[];fontSize=36;" parent="173" vertex="1" connectable="0">
                    <mxGeometry x="0.1083" y="-2" relative="1" as="geometry">
                        <mxPoint x="-14" y="50" as="offset"/>
                    </mxGeometry>
                </mxCell>
                <mxCell id="174" style="edgeStyle=none;html=1;entryX=0.75;entryY=0;entryDx=0;entryDy=0;exitX=0.651;exitY=1.001;exitDx=0;exitDy=0;exitPerimeter=0;fontStyle=1;" parent="1" source="172" target="162" edge="1">
                    <mxGeometry relative="1" as="geometry">
                        <mxPoint x="3059" y="1500" as="sourcePoint"/>
                        <mxPoint x="3064.1736600000004" y="1719.6399999999999" as="targetPoint"/>
                        <Array as="points">
                            <mxPoint x="3200" y="1780"/>
                        </Array>
                    </mxGeometry>
                </mxCell>
                <mxCell id="264" value="&lt;font style=&quot;font-size: 36px;&quot;&gt;Staff&lt;br&gt;&amp;nbsp;Identification&lt;br&gt;Details&lt;/font&gt;" style="edgeLabel;html=1;align=center;verticalAlign=middle;resizable=0;points=[];fontSize=24;" parent="174" vertex="1" connectable="0">
                    <mxGeometry x="0.151" y="-2" relative="1" as="geometry">
                        <mxPoint x="-118" y="-24" as="offset"/>
                    </mxGeometry>
                </mxCell>
                <mxCell id="519" style="edgeStyle=none;html=1;fontSize=24;fillColor=#FFFFFF;entryX=0.999;entryY=0.283;entryDx=0;entryDy=0;entryPerimeter=0;exitX=0.557;exitY=0.003;exitDx=0;exitDy=0;exitPerimeter=0;fontStyle=1" parent="1" source="172" target="507" edge="1">
                    <mxGeometry relative="1" as="geometry">
                        <mxPoint x="3010" y="1460" as="sourcePoint"/>
                        <Array as="points">
                            <mxPoint x="3125" y="1020"/>
                            <mxPoint x="3070" y="722"/>
                        </Array>
                        <mxPoint x="2840" y="720" as="targetPoint"/>
                    </mxGeometry>
                </mxCell>
                <mxCell id="520" value="&lt;font style=&quot;font-size: 36px;&quot;&gt;Realtime Updates&lt;br&gt;on tasks &lt;br&gt;and preparations&lt;/font&gt;" style="edgeLabel;html=1;align=center;verticalAlign=middle;resizable=0;points=[];fontSize=24;" parent="519" vertex="1" connectable="0">
                    <mxGeometry x="0.1923" y="-1" relative="1" as="geometry">
                        <mxPoint x="-79" y="-62" as="offset"/>
                    </mxGeometry>
                </mxCell>
                <mxCell id="562" style="edgeStyle=none;html=1;entryX=1.005;entryY=0.705;entryDx=0;entryDy=0;fontSize=36;fontStyle=1;exitX=0.768;exitY=-0.004;exitDx=0;exitDy=0;exitPerimeter=0;entryPerimeter=0;" parent="1" source="172" target="559" edge="1">
                    <mxGeometry relative="1" as="geometry">
                        <Array as="points">
                            <mxPoint x="3210" y="170"/>
                        </Array>
                        <mxPoint x="3220" y="1450" as="sourcePoint"/>
                    </mxGeometry>
                </mxCell>
                <mxCell id="580" value="&lt;font style=&quot;font-size: 36px;&quot;&gt;Tasks Status&amp;nbsp;&lt;br&gt;and Situation&amp;nbsp;&lt;br&gt;updates&lt;/font&gt;" style="edgeLabel;html=1;align=center;verticalAlign=middle;resizable=0;points=[];fontSize=24;" parent="562" vertex="1" connectable="0">
                    <mxGeometry x="0.8833" y="2" relative="1" as="geometry">
                        <mxPoint x="48" y="-81" as="offset"/>
                    </mxGeometry>
                </mxCell>
                <mxCell id="595" value="&lt;font style=&quot;font-size: 36px;&quot;&gt;Tasks Status&amp;nbsp;&lt;br&gt;and Situation&amp;nbsp;&lt;br&gt;updates&lt;/font&gt;" style="edgeLabel;html=1;align=center;verticalAlign=middle;resizable=0;points=[];fontSize=24;" parent="562" vertex="1" connectable="0">
                    <mxGeometry x="-0.822" y="3" relative="1" as="geometry">
                        <mxPoint x="96" y="-23" as="offset"/>
                    </mxGeometry>
                </mxCell>
                <mxCell id="577" value="" style="edgeStyle=none;html=1;fontSize=24;fontStyle=1;exitX=0.214;exitY=-0.001;exitDx=0;exitDy=0;exitPerimeter=0;entryX=1;entryY=0.343;entryDx=0;entryDy=0;entryPerimeter=0;" parent="1" source="172" target="177" edge="1">
                    <mxGeometry relative="1" as="geometry">
                        <Array as="points">
                            <mxPoint x="3002" y="1360"/>
                        </Array>
                    </mxGeometry>
                </mxCell>
                <mxCell id="698" value="Tasks&amp;nbsp;&lt;br&gt;Status" style="edgeLabel;html=1;align=center;verticalAlign=middle;resizable=0;points=[];fontSize=48;" vertex="1" connectable="0" parent="577">
                    <mxGeometry x="0.374" y="-1" relative="1" as="geometry">
                        <mxPoint x="38" y="-79" as="offset"/>
                    </mxGeometry>
                </mxCell>
                <mxCell id="172" value="&lt;font style=&quot;font-size: 48px;&quot;&gt;Staff member&lt;/font&gt;" style="shape=cube;whiteSpace=wrap;html=1;boundedLbl=1;backgroundOutline=1;darkOpacity=0.05;darkOpacity2=0.1;" parent="1" vertex="1">
                    <mxGeometry x="2910" y="1460" width="430" height="209.82" as="geometry"/>
                </mxCell>
                <mxCell id="180" style="edgeStyle=none;html=1;exitX=-0.019;exitY=0.36;exitDx=0;exitDy=0;fontStyle=1;exitPerimeter=0;" parent="1" source="177" edge="1">
                    <mxGeometry relative="1" as="geometry">
                        <mxPoint x="2090" y="1370" as="targetPoint"/>
                    </mxGeometry>
                </mxCell>
                <mxCell id="281" value="&lt;font style=&quot;font-size: 36px;&quot;&gt;Tasks Report&amp;nbsp;&lt;br&gt;&lt;/font&gt;" style="edgeLabel;html=1;align=center;verticalAlign=middle;resizable=0;points=[];fontSize=18;" parent="180" vertex="1" connectable="0">
                    <mxGeometry x="0.3996" y="3" relative="1" as="geometry">
                        <mxPoint x="62" y="-32" as="offset"/>
                    </mxGeometry>
                </mxCell>
                <mxCell id="182" style="edgeStyle=none;html=1;entryX=0;entryY=0;entryDx=410;entryDy=115;entryPerimeter=0;fontStyle=1;exitX=0.25;exitY=0;exitDx=0;exitDy=0;" parent="1" target="29" edge="1" source="177">
                    <mxGeometry relative="1" as="geometry">
                        <Array as="points">
                            <mxPoint x="2440" y="990"/>
                        </Array>
                        <mxPoint x="2500" y="1290" as="sourcePoint"/>
                    </mxGeometry>
                </mxCell>
                <mxCell id="279" value="&lt;font style=&quot;font-size: 36px;&quot;&gt;Business &lt;br&gt;Operations &lt;br&gt;Status&amp;nbsp;&lt;br&gt;&lt;/font&gt;" style="edgeLabel;html=1;align=center;verticalAlign=middle;resizable=0;points=[];fontSize=24;" parent="182" vertex="1" connectable="0">
                    <mxGeometry x="0.3741" y="4" relative="1" as="geometry">
                        <mxPoint x="-9" y="-2" as="offset"/>
                    </mxGeometry>
                </mxCell>
                <mxCell id="177" value="&lt;font style=&quot;font-size: 48px;&quot;&gt;Daily reports&lt;br&gt;for higher ranking officer&lt;/font&gt;" style="rounded=1;whiteSpace=wrap;html=1;fontSize=24;" parent="1" vertex="1">
                    <mxGeometry x="2450" y="1240" width="390" height="350" as="geometry"/>
                </mxCell>
                <mxCell id="178" value="" style="endArrow=none;html=1;fontSize=24;exitX=0;exitY=0.25;exitDx=0;exitDy=0;entryX=1;entryY=0.25;entryDx=0;entryDy=0;fontStyle=1" parent="1" source="177" target="177" edge="1">
                    <mxGeometry width="50" height="50" relative="1" as="geometry">
                        <mxPoint x="1909.3600000000001" y="1409.82" as="sourcePoint"/>
                        <mxPoint x="1959.3600000000001" y="1359.82" as="targetPoint"/>
                    </mxGeometry>
                </mxCell>
                <mxCell id="548" value="&lt;font style=&quot;font-size: 48px;&quot;&gt;16.0&lt;/font&gt;" style="edgeLabel;html=1;align=center;verticalAlign=middle;resizable=0;points=[];fontSize=36;" parent="178" vertex="1" connectable="0">
                    <mxGeometry x="-0.7161" y="3" relative="1" as="geometry">
                        <mxPoint x="25" y="-28" as="offset"/>
                    </mxGeometry>
                </mxCell>
                <mxCell id="454" style="edgeStyle=none;html=1;entryX=0.664;entryY=0.999;entryDx=0;entryDy=0;entryPerimeter=0;fontSize=24;exitX=0.082;exitY=-0.007;exitDx=0;exitDy=0;fontStyle=1;exitPerimeter=0;" parent="1" source="160" target="31" edge="1">
                    <mxGeometry relative="1" as="geometry">
                        <mxPoint x="3005.465" y="1970" as="sourcePoint"/>
                        <Array as="points"/>
                        <mxPoint x="3170" y="1415.0900000000001" as="targetPoint"/>
                    </mxGeometry>
                </mxCell>
                <mxCell id="455" value="&lt;font style=&quot;font-size: 36px;&quot;&gt;Schedule&amp;nbsp;&lt;br&gt;Information&lt;/font&gt;" style="edgeLabel;html=1;align=center;verticalAlign=middle;resizable=0;points=[];fontSize=24;" parent="454" vertex="1" connectable="0">
                    <mxGeometry x="-0.0465" y="-1" relative="1" as="geometry">
                        <mxPoint x="-13" y="22" as="offset"/>
                    </mxGeometry>
                </mxCell>
                <mxCell id="517" style="edgeStyle=none;html=1;fontSize=24;fillColor=#FFFFFF;entryX=0.429;entryY=0.003;entryDx=0;entryDy=0;entryPerimeter=0;exitX=0.982;exitY=0.955;exitDx=0;exitDy=0;exitPerimeter=0;fontStyle=1" parent="1" source="507" target="172" edge="1">
                    <mxGeometry relative="1" as="geometry">
                        <Array as="points">
                            <mxPoint x="2930" y="1000"/>
                            <mxPoint x="3040" y="1070"/>
                        </Array>
                        <mxPoint x="2820" y="880" as="sourcePoint"/>
                        <mxPoint x="2990" y="1290" as="targetPoint"/>
                    </mxGeometry>
                </mxCell>
                <mxCell id="518" value="&lt;font style=&quot;font-size: 36px;&quot;&gt;Orders &lt;br&gt;and&amp;nbsp;&lt;br&gt;Instructions&lt;/font&gt;" style="edgeLabel;html=1;align=center;verticalAlign=middle;resizable=0;points=[];fontSize=24;" parent="517" vertex="1" connectable="0">
                    <mxGeometry x="-0.1404" y="1" relative="1" as="geometry">
                        <mxPoint x="-81" y="-70" as="offset"/>
                    </mxGeometry>
                </mxCell>
                <mxCell id="522" style="edgeStyle=none;html=1;entryX=0.482;entryY=-0.011;entryDx=0;entryDy=0;fontSize=24;fillColor=#FFFFFF;exitX=0.55;exitY=1.017;exitDx=0;exitDy=0;exitPerimeter=0;entryPerimeter=0;fontStyle=1" parent="1" source="507" target="177" edge="1">
                    <mxGeometry relative="1" as="geometry">
                        <Array as="points"/>
                    </mxGeometry>
                </mxCell>
                <mxCell id="523" value="&lt;font style=&quot;font-size: 36px;&quot;&gt;Daily &lt;br&gt;Preparations&lt;br&gt;Progress and&lt;br&gt;Update&lt;/font&gt;" style="edgeLabel;html=1;align=center;verticalAlign=middle;resizable=0;points=[];fontSize=24;" parent="522" vertex="1" connectable="0">
                    <mxGeometry x="-0.6095" y="-1" relative="1" as="geometry">
                        <mxPoint x="49" y="63" as="offset"/>
                    </mxGeometry>
                </mxCell>
                <mxCell id="558" style="edgeStyle=none;html=1;entryX=1;entryY=0.5;entryDx=0;entryDy=0;fontSize=36;exitX=0.75;exitY=0;exitDx=0;exitDy=0;fontStyle=1" parent="1" source="507" target="555" edge="1">
                    <mxGeometry relative="1" as="geometry">
                        <Array as="points">
                            <mxPoint x="2650" y="340"/>
                        </Array>
                    </mxGeometry>
                </mxCell>
                <mxCell id="574" value="&lt;font style=&quot;font-size: 36px;&quot;&gt;Resource&lt;br&gt;&amp;nbsp;consumption &lt;br&gt;and status&lt;/font&gt;" style="edgeLabel;html=1;align=center;verticalAlign=middle;resizable=0;points=[];fontSize=36;" parent="558" vertex="1" connectable="0">
                    <mxGeometry x="0.6803" y="-1" relative="1" as="geometry">
                        <mxPoint x="128" y="38" as="offset"/>
                    </mxGeometry>
                </mxCell>
                <mxCell id="507" value="&lt;font style=&quot;font-size: 36px;&quot;&gt;Preparation for Catering Service&lt;/font&gt;" style="rounded=1;whiteSpace=wrap;html=1;fontSize=24;" parent="1" vertex="1">
                    <mxGeometry x="2380" y="650.9" width="460.62" height="250" as="geometry"/>
                </mxCell>
                <mxCell id="508" value="" style="endArrow=none;html=1;fontSize=24;exitX=-0.005;exitY=0.315;exitDx=0;exitDy=0;entryX=1;entryY=0.297;entryDx=0;entryDy=0;exitPerimeter=0;entryPerimeter=0;fontStyle=1" parent="1" source="507" target="507" edge="1">
                    <mxGeometry width="50" height="50" relative="1" as="geometry">
                        <mxPoint x="2259.36" y="2570" as="sourcePoint"/>
                        <mxPoint x="2309.36" y="2520" as="targetPoint"/>
                    </mxGeometry>
                </mxCell>
                <mxCell id="547" value="15.0" style="edgeLabel;html=1;align=center;verticalAlign=middle;resizable=0;points=[];fontSize=36;" parent="508" vertex="1" connectable="0">
                    <mxGeometry x="-0.8153" y="1" relative="1" as="geometry">
                        <mxPoint x="8" y="-28" as="offset"/>
                    </mxGeometry>
                </mxCell>
                <mxCell id="545" style="edgeStyle=none;html=1;exitX=0.63;exitY=0.004;exitDx=0;exitDy=0;exitPerimeter=0;entryX=0.75;entryY=1;entryDx=0;entryDy=0;fontStyle=1" parent="1" source="537" target="164" edge="1">
                    <mxGeometry relative="1" as="geometry">
                        <mxPoint x="2619.9986363636367" y="2890.000000000001" as="sourcePoint"/>
                        <mxPoint x="2627.12106060606" y="2730.000000000001" as="targetPoint"/>
                    </mxGeometry>
                </mxCell>
                <mxCell id="546" value="&lt;font style=&quot;font-size: 36px;&quot;&gt;Customer Feedback&lt;/font&gt;" style="edgeLabel;html=1;align=center;verticalAlign=middle;resizable=0;points=[];" parent="545" vertex="1" connectable="0">
                    <mxGeometry x="-0.2884" y="3" relative="1" as="geometry">
                        <mxPoint x="62" y="-23" as="offset"/>
                    </mxGeometry>
                </mxCell>
                <mxCell id="537" value="&lt;font style=&quot;font-size: 48px;&quot;&gt;CUSTOMER&lt;/font&gt;" style="shape=cube;whiteSpace=wrap;html=1;boundedLbl=1;backgroundOutline=1;darkOpacity=0.05;darkOpacity2=0.1;" parent="1" vertex="1">
                    <mxGeometry x="2340" y="3015" width="560" height="185" as="geometry"/>
                </mxCell>
                <mxCell id="579" style="edgeStyle=none;html=1;fontSize=24;exitX=0.435;exitY=0;exitDx=0;exitDy=0;exitPerimeter=0;entryX=0.244;entryY=1.016;entryDx=0;entryDy=0;fontStyle=1;entryPerimeter=0;" parent="1" source="555" target="566" edge="1">
                    <mxGeometry relative="1" as="geometry">
                        <Array as="points"/>
                        <mxPoint x="1810" y="-135.82999999999993" as="targetPoint"/>
                    </mxGeometry>
                </mxCell>
                <mxCell id="597" value="&lt;font style=&quot;font-size: 36px;&quot;&gt;Processed and Validated consumed resources&lt;/font&gt;" style="edgeLabel;html=1;align=center;verticalAlign=middle;resizable=0;points=[];fontSize=24;" parent="579" vertex="1" connectable="0">
                    <mxGeometry x="0.2479" y="-3" relative="1" as="geometry">
                        <mxPoint x="193" y="-30" as="offset"/>
                    </mxGeometry>
                </mxCell>
                <mxCell id="603" style="edgeStyle=none;html=1;entryX=0.154;entryY=-0.008;entryDx=0;entryDy=0;entryPerimeter=0;fontSize=24;exitX=0.55;exitY=1.007;exitDx=0;exitDy=0;exitPerimeter=0;fontStyle=1" parent="1" source="555" target="29" edge="1">
                    <mxGeometry relative="1" as="geometry"/>
                </mxCell>
                <mxCell id="604" value="&lt;font style=&quot;font-size: 36px;&quot;&gt;Updates on Unvalidated&amp;nbsp;&lt;br&gt;Resources&amp;nbsp;Consumed&lt;/font&gt;" style="edgeLabel;html=1;align=center;verticalAlign=middle;resizable=0;points=[];fontSize=24;" parent="603" vertex="1" connectable="0">
                    <mxGeometry x="-0.4093" y="-7" relative="1" as="geometry">
                        <mxPoint x="-147" y="65" as="offset"/>
                    </mxGeometry>
                </mxCell>
                <mxCell id="555" value="&lt;font style=&quot;font-size: 36px;&quot;&gt;Record to Inventory Excel Sheet the costs and&amp;nbsp;&lt;br&gt;resources consumed&lt;/font&gt;" style="rounded=1;whiteSpace=wrap;html=1;fontSize=24;" parent="1" vertex="1">
                    <mxGeometry x="1343.12" y="170" width="820" height="240" as="geometry"/>
                </mxCell>
                <mxCell id="556" value="" style="endArrow=none;html=1;fontSize=24;exitX=0;exitY=0.25;exitDx=0;exitDy=0;entryX=1;entryY=0.25;entryDx=0;entryDy=0;fontStyle=1" parent="1" source="555" target="555" edge="1">
                    <mxGeometry width="50" height="50" relative="1" as="geometry">
                        <mxPoint x="1399.3600000000001" y="319.8199999999997" as="sourcePoint"/>
                        <mxPoint x="1449.3600000000001" y="269.8199999999997" as="targetPoint"/>
                    </mxGeometry>
                </mxCell>
                <mxCell id="557" value="16.0" style="edgeLabel;html=1;align=center;verticalAlign=middle;resizable=0;points=[];fontSize=36;" parent="556" vertex="1" connectable="0">
                    <mxGeometry x="-0.7161" y="3" relative="1" as="geometry">
                        <mxPoint x="8" y="-19" as="offset"/>
                    </mxGeometry>
                </mxCell>
                <mxCell id="565" style="edgeStyle=none;html=1;fontSize=36;entryX=0.7;entryY=0.007;entryDx=0;entryDy=0;entryPerimeter=0;fontStyle=1;exitX=0;exitY=0.25;exitDx=0;exitDy=0;" parent="1" source="559" target="555" edge="1">
                    <mxGeometry relative="1" as="geometry">
                        <Array as="points">
                            <mxPoint x="1920" y="70"/>
                        </Array>
                    </mxGeometry>
                </mxCell>
                <mxCell id="598" value="&lt;font style=&quot;font-size: 36px;&quot;&gt;record of consumed&amp;nbsp;resources&lt;/font&gt;" style="edgeLabel;html=1;align=center;verticalAlign=middle;resizable=0;points=[];fontSize=24;" parent="565" vertex="1" connectable="0">
                    <mxGeometry x="-0.0425" y="-2" relative="1" as="geometry">
                        <mxPoint x="8" y="-34" as="offset"/>
                    </mxGeometry>
                </mxCell>
                <mxCell id="581" style="edgeStyle=none;html=1;fontSize=24;exitX=0.867;exitY=1.01;exitDx=0;exitDy=0;exitPerimeter=0;entryX=0.661;entryY=0.006;entryDx=0;entryDy=0;entryPerimeter=0;fontStyle=1" parent="1" source="559" target="172" edge="1">
                    <mxGeometry relative="1" as="geometry">
                        <mxPoint x="3180" y="1450" as="targetPoint"/>
                        <Array as="points">
                            <mxPoint x="2950" y="320"/>
                            <mxPoint x="3135" y="380"/>
                            <mxPoint x="3170" y="710"/>
                            <mxPoint x="3180" y="1040"/>
                        </Array>
                    </mxGeometry>
                </mxCell>
                <mxCell id="585" value="&lt;font style=&quot;font-size: 36px;&quot;&gt;Orders &lt;br&gt;and&amp;nbsp;&lt;br&gt;Instruction&amp;nbsp;&lt;br&gt;from&amp;nbsp;&lt;br&gt;Management&lt;/font&gt;" style="edgeLabel;html=1;align=center;verticalAlign=middle;resizable=0;points=[];fontSize=24;" parent="581" vertex="1" connectable="0">
                    <mxGeometry x="-0.7108" y="7" relative="1" as="geometry">
                        <mxPoint x="10" y="105" as="offset"/>
                    </mxGeometry>
                </mxCell>
                <mxCell id="606" style="edgeStyle=none;html=1;entryX=0.625;entryY=1.009;entryDx=0;entryDy=0;entryPerimeter=0;fontSize=24;exitX=0.895;exitY=-0.018;exitDx=0;exitDy=0;exitPerimeter=0;fontStyle=1" parent="1" source="559" target="590" edge="1">
                    <mxGeometry relative="1" as="geometry"/>
                </mxCell>
                <mxCell id="607" value="&lt;font style=&quot;font-size: 36px;&quot;&gt;Situation Report and status&amp;nbsp;&lt;/font&gt;" style="edgeLabel;html=1;align=center;verticalAlign=middle;resizable=0;points=[];fontSize=24;" parent="606" vertex="1" connectable="0">
                    <mxGeometry x="0.3185" y="-3" relative="1" as="geometry">
                        <mxPoint x="106" y="127" as="offset"/>
                    </mxGeometry>
                </mxCell>
                <mxCell id="559" value="&lt;font style=&quot;font-size: 36px;&quot;&gt;Facilities Maintenance and&amp;nbsp;&lt;br&gt;preparation of services&lt;/font&gt;" style="rounded=1;whiteSpace=wrap;html=1;fontSize=24;" parent="1" vertex="1">
                    <mxGeometry x="2440" width="520" height="240" as="geometry"/>
                </mxCell>
                <mxCell id="560" value="" style="endArrow=none;html=1;fontSize=24;exitX=0;exitY=0.25;exitDx=0;exitDy=0;entryX=1;entryY=0.25;entryDx=0;entryDy=0;fontStyle=1" parent="1" source="559" target="559" edge="1">
                    <mxGeometry width="50" height="50" relative="1" as="geometry">
                        <mxPoint x="2269.36" y="119.81999999999971" as="sourcePoint"/>
                        <mxPoint x="2319.36" y="69.81999999999971" as="targetPoint"/>
                    </mxGeometry>
                </mxCell>
                <mxCell id="561" value="16.0" style="edgeLabel;html=1;align=center;verticalAlign=middle;resizable=0;points=[];fontSize=36;" parent="560" vertex="1" connectable="0">
                    <mxGeometry x="-0.7161" y="3" relative="1" as="geometry">
                        <mxPoint x="8" y="-19" as="offset"/>
                    </mxGeometry>
                </mxCell>
                <mxCell id="576" style="edgeStyle=none;html=1;fontSize=24;fontStyle=1;entryX=0.75;entryY=0;entryDx=0;entryDy=0;" parent="1" source="566" target="177" edge="1">
                    <mxGeometry relative="1" as="geometry">
                        <mxPoint x="2770" y="1238" as="targetPoint"/>
                        <Array as="points">
                            <mxPoint x="1910" y="-660"/>
                            <mxPoint x="3350" y="-660"/>
                            <mxPoint x="3370" y="1100"/>
                            <mxPoint x="2743" y="1170"/>
                        </Array>
                    </mxGeometry>
                </mxCell>
                <mxCell id="587" value="&lt;font style=&quot;font-size: 36px;&quot;&gt;relevant Inventory status and changes&amp;nbsp;&lt;/font&gt;" style="edgeLabel;html=1;align=center;verticalAlign=middle;resizable=0;points=[];fontSize=24;" parent="576" vertex="1" connectable="0">
                    <mxGeometry x="-0.888" y="-1" relative="1" as="geometry">
                        <mxPoint x="102" y="79" as="offset"/>
                    </mxGeometry>
                </mxCell>
                <mxCell id="589" value="&lt;font style=&quot;font-size: 36px;&quot;&gt;Inventory&lt;br&gt;status&lt;br&gt;and&lt;br&gt;changes&amp;nbsp;&lt;/font&gt;" style="edgeLabel;html=1;align=center;verticalAlign=middle;resizable=0;points=[];fontSize=24;" parent="576" vertex="1" connectable="0">
                    <mxGeometry x="0.2895" relative="1" as="geometry">
                        <mxPoint x="-31" y="230" as="offset"/>
                    </mxGeometry>
                </mxCell>
                <mxCell id="566" value="" style="rounded=0;whiteSpace=wrap;html=1;fontSize=24;" parent="1" vertex="1">
                    <mxGeometry x="1500" y="-480" width="780" height="198.67" as="geometry"/>
                </mxCell>
                <mxCell id="567" value="" style="endArrow=none;html=1;fontSize=24;exitX=0.155;exitY=-0.002;exitDx=0;exitDy=0;exitPerimeter=0;entryX=0.152;entryY=1.011;entryDx=0;entryDy=0;entryPerimeter=0;fontStyle=1" parent="1" source="566" target="566" edge="1">
                    <mxGeometry width="50" height="50" relative="1" as="geometry">
                        <mxPoint x="1840" y="-21.75" as="sourcePoint"/>
                        <mxPoint x="1890" y="-71.75" as="targetPoint"/>
                    </mxGeometry>
                </mxCell>
                <mxCell id="675" value="&lt;font style=&quot;font-size: 48px;&quot;&gt;Excel Inventory Spreadsheet&lt;/font&gt;" style="edgeLabel;html=1;align=center;verticalAlign=middle;resizable=0;points=[];fontSize=36;" vertex="1" connectable="0" parent="567">
                    <mxGeometry x="-0.5427" y="3" relative="1" as="geometry">
                        <mxPoint x="327" y="54" as="offset"/>
                    </mxGeometry>
                </mxCell>
                <mxCell id="676" value="&lt;font style=&quot;font-size: 48px;&quot;&gt;D1&lt;/font&gt;" style="edgeLabel;html=1;align=center;verticalAlign=middle;resizable=0;points=[];fontSize=36;" vertex="1" connectable="0" parent="567">
                    <mxGeometry x="-0.6099" y="-1" relative="1" as="geometry">
                        <mxPoint x="-50" y="55" as="offset"/>
                    </mxGeometry>
                </mxCell>
                <mxCell id="570" value="" style="endArrow=classic;html=1;fontSize=36;entryX=0.612;entryY=1.003;entryDx=0;entryDy=0;exitX=0.644;exitY=-0.005;exitDx=0;exitDy=0;exitPerimeter=0;fontStyle=1;entryPerimeter=0;" parent="1" source="29" target="559" edge="1">
                    <mxGeometry width="50" height="50" relative="1" as="geometry">
                        <mxPoint x="2250" y="770" as="sourcePoint"/>
                        <mxPoint x="2710" y="410" as="targetPoint"/>
                        <Array as="points">
                            <mxPoint x="2000" y="730"/>
                            <mxPoint x="2180" y="640"/>
                            <mxPoint x="2370" y="620"/>
                            <mxPoint x="2760" y="560"/>
                        </Array>
                    </mxGeometry>
                </mxCell>
                <mxCell id="601" value="&lt;span style=&quot;&quot;&gt;&lt;font style=&quot;font-size: 36px;&quot;&gt;Orders and Instructions&lt;/font&gt;&lt;/span&gt;" style="edgeLabel;html=1;align=center;verticalAlign=middle;resizable=0;points=[];fontSize=24;" parent="570" vertex="1" connectable="0">
                    <mxGeometry x="-0.4262" y="2" relative="1" as="geometry">
                        <mxPoint x="-46" y="15" as="offset"/>
                    </mxGeometry>
                </mxCell>
                <mxCell id="593" style="edgeStyle=none;html=1;entryX=0.409;entryY=-0.004;entryDx=0;entryDy=0;fontSize=24;fontStyle=1;entryPerimeter=0;exitX=0.31;exitY=1.006;exitDx=0;exitDy=0;exitPerimeter=0;" parent="1" source="590" target="559" edge="1">
                    <mxGeometry relative="1" as="geometry"/>
                </mxCell>
                <mxCell id="594" value="&lt;font style=&quot;font-size: 36px;&quot;&gt;Tasks Specific &lt;br&gt;Orders and Instructions&amp;nbsp;&lt;/font&gt;" style="edgeLabel;html=1;align=center;verticalAlign=middle;resizable=0;points=[];fontSize=24;" parent="593" vertex="1" connectable="0">
                    <mxGeometry x="-0.6171" y="1" relative="1" as="geometry">
                        <mxPoint x="-36" y="70" as="offset"/>
                    </mxGeometry>
                </mxCell>
                <mxCell id="590" value="&lt;font style=&quot;&quot;&gt;&lt;font style=&quot;font-size: 72px;&quot;&gt;Management Officer&lt;/font&gt;&lt;br&gt;&lt;/font&gt;" style="shape=cube;whiteSpace=wrap;html=1;boundedLbl=1;backgroundOutline=1;darkOpacity=0.05;darkOpacity2=0.1;" parent="1" vertex="1">
                    <mxGeometry x="2410" y="-570" width="800" height="209.82" as="geometry"/>
                </mxCell>
                <mxCell id="600" value="" style="edgeStyle=none;html=1;fontSize=24;fillColor=#FFFFFF;exitX=0.828;exitY=-0.006;exitDx=0;exitDy=0;exitPerimeter=0;endArrow=none;fontStyle=1" parent="1" source="29" target="572" edge="1">
                    <mxGeometry relative="1" as="geometry">
                        <Array as="points">
                            <mxPoint x="2070" y="800"/>
                        </Array>
                        <mxPoint x="2063.5200000000004" y="870.8400000000001" as="sourcePoint"/>
                        <mxPoint x="2381.8424800000003" y="769.4000000000001" as="targetPoint"/>
                    </mxGeometry>
                </mxCell>
                <mxCell id="605" style="edgeStyle=none;html=1;entryX=0;entryY=0.5;entryDx=0;entryDy=0;fontSize=24;fontStyle=1" parent="1" source="572" target="507" edge="1">
                    <mxGeometry relative="1" as="geometry"/>
                </mxCell>
                <mxCell id="572" value="&lt;span style=&quot;background-color: rgb(24, 20, 29);&quot;&gt;&lt;font style=&quot;font-size: 36px;&quot;&gt;Orders and Instructions&lt;/font&gt;&lt;/span&gt;" style="text;html=1;strokeColor=none;fillColor=none;align=center;verticalAlign=middle;whiteSpace=wrap;rounded=0;fontSize=36;" parent="1" vertex="1">
                    <mxGeometry x="2125" y="770" width="170" height="30" as="geometry"/>
                </mxCell>
                <mxCell id="692" style="edgeStyle=none;html=1;entryX=0.307;entryY=0.013;entryDx=0;entryDy=0;entryPerimeter=0;fontSize=36;exitX=0.267;exitY=1.005;exitDx=0;exitDy=0;exitPerimeter=0;" edge="1" parent="1" source="641" target="663">
                    <mxGeometry relative="1" as="geometry"/>
                </mxCell>
                <mxCell id="693" value="Purpose of&amp;nbsp;Contact" style="edgeLabel;html=1;align=center;verticalAlign=middle;resizable=0;points=[];fontSize=36;" vertex="1" connectable="0" parent="692">
                    <mxGeometry x="-0.3971" y="-1" relative="1" as="geometry">
                        <mxPoint x="-68" y="24" as="offset"/>
                    </mxGeometry>
                </mxCell>
                <mxCell id="641" value="&lt;font style=&quot;font-size: 72px;&quot;&gt;CUSTOMER&lt;/font&gt;" style="shape=cube;whiteSpace=wrap;html=1;boundedLbl=1;backgroundOutline=1;darkOpacity=0.05;darkOpacity2=0.1;" vertex="1" parent="1">
                    <mxGeometry x="260" y="-860" width="560" height="260" as="geometry"/>
                </mxCell>
                <mxCell id="714" style="edgeStyle=none;html=1;entryX=0;entryY=0.5;entryDx=0;entryDy=0;fontSize=48;" edge="1" parent="1" source="647" target="669">
                    <mxGeometry relative="1" as="geometry">
                        <Array as="points">
                            <mxPoint x="-90" y="2930"/>
                            <mxPoint x="-90" y="300"/>
                        </Array>
                    </mxGeometry>
                </mxCell>
                <mxCell id="716" value="&lt;span style=&quot;font-size: 36px;&quot;&gt;Relevant&lt;/span&gt;&lt;br style=&quot;font-size: 36px;&quot;&gt;&lt;span style=&quot;font-size: 36px;&quot;&gt;Previous&lt;/span&gt;&lt;br style=&quot;font-size: 36px;&quot;&gt;&lt;span style=&quot;font-size: 36px;&quot;&gt;Transaction&lt;/span&gt;&lt;br style=&quot;font-size: 36px;&quot;&gt;&lt;span style=&quot;font-size: 36px;&quot;&gt;Customer&lt;/span&gt;&lt;br style=&quot;font-size: 36px;&quot;&gt;&lt;span style=&quot;font-size: 36px;&quot;&gt;Data&lt;/span&gt;" style="edgeLabel;html=1;align=center;verticalAlign=middle;resizable=0;points=[];fontSize=48;" vertex="1" connectable="0" parent="714">
                    <mxGeometry x="-0.9361" y="-12" relative="1" as="geometry">
                        <mxPoint x="-42" y="55" as="offset"/>
                    </mxGeometry>
                </mxCell>
                <mxCell id="647" value="&lt;font style=&quot;font-size: 48px;&quot;&gt;Transaction End and calculate the total cost of transactions&lt;br&gt;or start a new Transactions&lt;/font&gt;" style="rounded=1;whiteSpace=wrap;html=1;fontSize=24;" vertex="1" parent="1">
                    <mxGeometry x="180" y="2810" width="600.31" height="490" as="geometry"/>
                </mxCell>
                <mxCell id="648" value="" style="endArrow=none;html=1;fontSize=24;exitX=0;exitY=0.25;exitDx=0;exitDy=0;entryX=1;entryY=0.25;entryDx=0;entryDy=0;fontStyle=1" edge="1" parent="1" source="647" target="647">
                    <mxGeometry width="50" height="50" relative="1" as="geometry">
                        <mxPoint x="-500.64" y="2715" as="sourcePoint"/>
                        <mxPoint x="-450.64" y="2665" as="targetPoint"/>
                    </mxGeometry>
                </mxCell>
                <mxCell id="649" value="&lt;font style=&quot;font-size: 48px;&quot;&gt;10.0&lt;/font&gt;" style="edgeLabel;html=1;align=center;verticalAlign=middle;resizable=0;points=[];fontSize=24;" vertex="1" connectable="0" parent="648">
                    <mxGeometry x="-0.6555" y="3" relative="1" as="geometry">
                        <mxPoint x="-11" y="-49" as="offset"/>
                    </mxGeometry>
                </mxCell>
                <mxCell id="688" style="edgeStyle=none;html=1;exitX=0.25;exitY=1;exitDx=0;exitDy=0;entryX=0.17;entryY=-0.007;entryDx=0;entryDy=0;entryPerimeter=0;fontSize=36;" edge="1" parent="1" source="663" target="666">
                    <mxGeometry relative="1" as="geometry"/>
                </mxCell>
                <mxCell id="689" value="Questions" style="edgeLabel;html=1;align=center;verticalAlign=middle;resizable=0;points=[];fontSize=36;" vertex="1" connectable="0" parent="688">
                    <mxGeometry x="0.2785" y="3" relative="1" as="geometry">
                        <mxPoint x="-95" y="-22" as="offset"/>
                    </mxGeometry>
                </mxCell>
                <mxCell id="690" style="edgeStyle=none;html=1;entryX=0;entryY=0;entryDx=290;entryDy=260;entryPerimeter=0;fontSize=36;exitX=0.552;exitY=-0.001;exitDx=0;exitDy=0;exitPerimeter=0;" edge="1" parent="1" source="663" target="641">
                    <mxGeometry relative="1" as="geometry"/>
                </mxCell>
                <mxCell id="691" value="Feedback and Information" style="edgeLabel;html=1;align=center;verticalAlign=middle;resizable=0;points=[];fontSize=36;" vertex="1" connectable="0" parent="690">
                    <mxGeometry x="0.4244" y="-5" relative="1" as="geometry">
                        <mxPoint x="184" y="28" as="offset"/>
                    </mxGeometry>
                </mxCell>
                <mxCell id="663" value="&lt;font style=&quot;font-size: 36px;&quot;&gt;Contact with business management&lt;/font&gt;" style="rounded=1;whiteSpace=wrap;html=1;fontSize=24;" vertex="1" parent="1">
                    <mxGeometry x="200" y="-420" width="640" height="150" as="geometry"/>
                </mxCell>
                <mxCell id="664" value="" style="endArrow=none;html=1;fontSize=24;exitX=0;exitY=0.353;exitDx=0;exitDy=0;entryX=1;entryY=0.346;entryDx=0;entryDy=0;fontStyle=1;exitPerimeter=0;entryPerimeter=0;" edge="1" parent="1" source="663" target="663">
                    <mxGeometry width="50" height="50" relative="1" as="geometry">
                        <mxPoint x="680.62" y="480" as="sourcePoint"/>
                        <mxPoint x="730.62" y="430" as="targetPoint"/>
                    </mxGeometry>
                </mxCell>
                <mxCell id="665" value="&lt;font style=&quot;font-size: 36px;&quot;&gt;1.0&lt;/font&gt;" style="edgeLabel;html=1;align=center;verticalAlign=middle;resizable=0;points=[];" vertex="1" connectable="0" parent="664">
                    <mxGeometry x="-0.4935" y="-1" relative="1" as="geometry">
                        <mxPoint x="-102" y="-27" as="offset"/>
                    </mxGeometry>
                </mxCell>
                <mxCell id="684" style="edgeStyle=none;html=1;exitX=0.266;exitY=1.015;exitDx=0;exitDy=0;fontSize=36;exitPerimeter=0;" edge="1" parent="1" source="666" target="669">
                    <mxGeometry relative="1" as="geometry"/>
                </mxCell>
                <mxCell id="685" value="&lt;span style=&quot;font-weight: 700;&quot;&gt;Request for Availing Services&lt;/span&gt;" style="edgeLabel;html=1;align=center;verticalAlign=middle;resizable=0;points=[];fontSize=36;" vertex="1" connectable="0" parent="684">
                    <mxGeometry x="-0.2668" y="-1" relative="1" as="geometry">
                        <mxPoint x="266" y="10" as="offset"/>
                    </mxGeometry>
                </mxCell>
                <mxCell id="686" style="edgeStyle=none;html=1;entryX=0.75;entryY=1;entryDx=0;entryDy=0;fontSize=36;" edge="1" parent="1" source="666" target="663">
                    <mxGeometry relative="1" as="geometry"/>
                </mxCell>
                <mxCell id="687" value="Answers" style="edgeLabel;html=1;align=center;verticalAlign=middle;resizable=0;points=[];fontSize=36;" vertex="1" connectable="0" parent="686">
                    <mxGeometry x="0.2214" y="-1" relative="1" as="geometry">
                        <mxPoint x="71" y="16" as="offset"/>
                    </mxGeometry>
                </mxCell>
                <mxCell id="666" value="&lt;font style=&quot;font-size: 36px;&quot;&gt;Inquire for Available Business Services and Information&lt;/font&gt;" style="rounded=1;whiteSpace=wrap;html=1;fontSize=24;" vertex="1" parent="1">
                    <mxGeometry x="200" y="-140" width="960" height="180" as="geometry"/>
                </mxCell>
                <mxCell id="667" value="" style="endArrow=none;html=1;fontSize=24;exitX=-0.001;exitY=0.324;exitDx=0;exitDy=0;entryX=0.999;entryY=0.336;entryDx=0;entryDy=0;fontStyle=1;exitPerimeter=0;entryPerimeter=0;" edge="1" parent="1" source="666" target="666">
                    <mxGeometry width="50" height="50" relative="1" as="geometry">
                        <mxPoint x="200.62" y="550" as="sourcePoint"/>
                        <mxPoint x="250.62" y="500" as="targetPoint"/>
                    </mxGeometry>
                </mxCell>
                <mxCell id="668" value="&lt;font style=&quot;font-size: 48px;&quot;&gt;2.0&lt;/font&gt;" style="edgeLabel;html=1;align=center;verticalAlign=middle;resizable=0;points=[];fontSize=24;" vertex="1" connectable="0" parent="667">
                    <mxGeometry x="-0.224" y="2" relative="1" as="geometry">
                        <mxPoint x="-291" y="-28" as="offset"/>
                    </mxGeometry>
                </mxCell>
                <mxCell id="681" style="edgeStyle=none;html=1;entryX=0.5;entryY=0;entryDx=0;entryDy=0;fontSize=36;" edge="1" parent="1" source="669" target="672">
                    <mxGeometry relative="1" as="geometry"/>
                </mxCell>
                <mxCell id="682" value="Service Request&amp;nbsp;" style="edgeLabel;html=1;align=center;verticalAlign=middle;resizable=0;points=[];fontSize=36;" vertex="1" connectable="0" parent="681">
                    <mxGeometry x="-0.3666" y="6" relative="1" as="geometry">
                        <mxPoint x="-91" y="25" as="offset"/>
                    </mxGeometry>
                </mxCell>
                <mxCell id="669" value="&lt;font style=&quot;font-size: 36px;&quot;&gt;Start a transaction&lt;/font&gt;" style="rounded=1;whiteSpace=wrap;html=1;fontSize=24;" vertex="1" parent="1">
                    <mxGeometry x="210" y="170" width="490" height="170" as="geometry"/>
                </mxCell>
                <mxCell id="670" value="" style="endArrow=none;html=1;fontSize=24;exitX=0.002;exitY=0.324;exitDx=0;exitDy=0;entryX=1.002;entryY=0.338;entryDx=0;entryDy=0;exitPerimeter=0;entryPerimeter=0;fontStyle=1" edge="1" parent="1" source="669" target="669">
                    <mxGeometry width="50" height="50" relative="1" as="geometry">
                        <mxPoint x="530" y="280" as="sourcePoint"/>
                        <mxPoint x="580" y="230" as="targetPoint"/>
                    </mxGeometry>
                </mxCell>
                <mxCell id="671" value="&lt;font style=&quot;font-size: 36px;&quot;&gt;3.0&lt;/font&gt;" style="edgeLabel;html=1;align=center;verticalAlign=middle;resizable=0;points=[];fontSize=24;" vertex="1" connectable="0" parent="670">
                    <mxGeometry x="-0.6495" y="4" relative="1" as="geometry">
                        <mxPoint x="-27" y="-21" as="offset"/>
                    </mxGeometry>
                </mxCell>
                <mxCell id="679" style="edgeStyle=none;html=1;entryX=0.25;entryY=0;entryDx=0;entryDy=0;fontSize=36;" edge="1" parent="1" source="672" target="110">
                    <mxGeometry relative="1" as="geometry"/>
                </mxCell>
                <mxCell id="680" value="Chose Catering Service&amp;nbsp;" style="edgeLabel;html=1;align=center;verticalAlign=middle;resizable=0;points=[];fontSize=36;" vertex="1" connectable="0" parent="679">
                    <mxGeometry x="-0.3012" y="5" relative="1" as="geometry">
                        <mxPoint x="-44" y="32" as="offset"/>
                    </mxGeometry>
                </mxCell>
                <mxCell id="672" value="&lt;font style=&quot;font-size: 36px;&quot;&gt;Choose Service to Avail&lt;/font&gt;" style="rounded=1;whiteSpace=wrap;html=1;fontSize=24;" vertex="1" parent="1">
                    <mxGeometry x="220" y="510" width="450" height="200" as="geometry"/>
                </mxCell>
                <mxCell id="673" value="" style="endArrow=none;html=1;fontSize=24;exitX=0;exitY=0.276;exitDx=0;exitDy=0;exitPerimeter=0;entryX=1.001;entryY=0.28;entryDx=0;entryDy=0;entryPerimeter=0;fontStyle=1" edge="1" parent="1" source="672" target="672">
                    <mxGeometry width="50" height="50" relative="1" as="geometry">
                        <mxPoint x="525" y="630" as="sourcePoint"/>
                        <mxPoint x="680" y="690" as="targetPoint"/>
                    </mxGeometry>
                </mxCell>
                <mxCell id="674" value="&lt;font style=&quot;font-size: 36px;&quot;&gt;4.0&lt;/font&gt;" style="edgeLabel;html=1;align=center;verticalAlign=middle;resizable=0;points=[];fontSize=24;" vertex="1" connectable="0" parent="673">
                    <mxGeometry x="-0.7344" y="1" relative="1" as="geometry">
                        <mxPoint y="-24" as="offset"/>
                    </mxGeometry>
                </mxCell>
                <mxCell id="711" style="edgeStyle=none;html=1;entryX=0.186;entryY=1.011;entryDx=0;entryDy=0;fontSize=48;entryPerimeter=0;exitX=0.651;exitY=-0.013;exitDx=0;exitDy=0;exitPerimeter=0;" edge="1" parent="1" source="706" target="160">
                    <mxGeometry relative="1" as="geometry"/>
                </mxCell>
                <mxCell id="712" value="&lt;span style=&quot;font-size: 36px;&quot;&gt;Current Room lodging &lt;br&gt;and Reservation status&lt;/span&gt;" style="edgeLabel;html=1;align=center;verticalAlign=middle;resizable=0;points=[];fontSize=48;" vertex="1" connectable="0" parent="711">
                    <mxGeometry x="-0.243" y="5" relative="1" as="geometry">
                        <mxPoint x="-154" y="113" as="offset"/>
                    </mxGeometry>
                </mxCell>
                <mxCell id="706" value="" style="rounded=0;whiteSpace=wrap;html=1;fontSize=24;" vertex="1" parent="1">
                    <mxGeometry x="1640" y="2980" width="670" height="200" as="geometry"/>
                </mxCell>
                <mxCell id="707" value="" style="endArrow=none;html=1;fontSize=24;exitX=0.155;exitY=-0.002;exitDx=0;exitDy=0;exitPerimeter=0;entryX=0.152;entryY=1.011;entryDx=0;entryDy=0;entryPerimeter=0;fontStyle=1" edge="1" parent="1" source="706" target="706">
                    <mxGeometry width="50" height="50" relative="1" as="geometry">
                        <mxPoint x="1897.34" y="2961.1200000000003" as="sourcePoint"/>
                        <mxPoint x="1947.34" y="2911.1200000000003" as="targetPoint"/>
                    </mxGeometry>
                </mxCell>
                <mxCell id="708" value="&lt;font style=&quot;font-size: 48px;&quot;&gt;D2&lt;/font&gt;" style="edgeLabel;html=1;align=center;verticalAlign=middle;resizable=0;points=[];" vertex="1" connectable="0" parent="707">
                    <mxGeometry x="-0.1229" y="-2" relative="1" as="geometry">
                        <mxPoint x="-45" y="10" as="offset"/>
                    </mxGeometry>
                </mxCell>
                <mxCell id="709" value="&lt;font style=&quot;font-size: 48px;&quot;&gt;Registration Cards&lt;br&gt;&amp;nbsp;Storage&lt;/font&gt;" style="edgeLabel;html=1;align=center;verticalAlign=middle;resizable=0;points=[];fontSize=48;" vertex="1" connectable="0" parent="707">
                    <mxGeometry x="-0.3505" y="1" relative="1" as="geometry">
                        <mxPoint x="227" y="35" as="offset"/>
                    </mxGeometry>
                </mxCell>
            </root>
        </mxGraphModel>
    </diagram>
</mxfile>